<svg width="28" height="29" fill="none" xmlns="http://www.w3.org/2000/svg"><path d="M14 25.687c6.443 0 11.667-5.223 11.667-11.667 0-6.443-5.224-11.666-11.667-11.666S2.333 7.577 2.333 14.02c0 6.444 5.224 11.667 11.667 11.667z" stroke="#3B71FE" stroke-width="2" stroke-linecap="round" stroke-linejoin="round"/><path d="M25.375 15c-4.083-1.085-7.735-.956-10.43 0-3.01 1.074-5.845 3.337-8.68 7.374M9.987 3.229c5.098 7.035 7.023 10.99 9.368 20.673L9.987 3.23zm12.331 2.73c-4.34 5.075-10.43 6.603-19.693 6.825l19.693-6.825z" stroke="#3B71FE" stroke-width="2" stroke-linecap="round" stroke-linejoin="round"/></svg>