<svg width="42" height="24" fill="none" xmlns="http://www.w3.org/2000/svg"><path d="M4.624.664v13.824c0 1.515.395 2.677 1.184 3.488.79.79 1.899 1.184 3.328 1.184 1.45 0 2.57-.395 3.36-1.184.79-.81 1.184-1.973 1.184-3.488V.664h4.512v13.792c0 1.899-.416 3.51-1.248 4.832a7.722 7.722 0 01-3.296 2.944c-1.365.661-2.89.992-4.576.992-1.664 0-3.179-.33-4.544-.992a7.603 7.603 0 01-3.2-2.944C.538 17.965.144 16.355.144 14.456V.664h4.48zM35.897 23l-4.832-7.52L26.68 23h-5.055l7.04-11.264L21.529.664h5.151l4.832 7.488L35.864.664h5.056l-7.008 11.232L41.049 23h-5.151z" fill="#3B71FE"/></svg>