<svg width="52" height="52" fill="none" xmlns="http://www.w3.org/2000/svg"><path d="M49.438 1H2.562C1.7 1 1 1.7 1 2.563v46.874C1 50.3 1.7 51 2.563 51h46.874C50.3 51 51 50.3 51 49.437V2.563C51 1.7 50.3 1 49.437 1z" stroke="#BFD2F8" stroke-width="2" stroke-linecap="round" stroke-linejoin="round"/><path d="M16 16H6v10h10V16zm10 0H16v10h10V16zm10 0H26v10h10V16zm10 0H36v10h10V16zm0 10H36v10h10V26zm-10 0H26v10h10V26zm-10 0H16v10h10V26zm-10 0H6v10h10V26zm0 10H6v10h10V36zm10 0H16v10h10V36zm10 0H26v10h10V36z" stroke="#BFD2F8" stroke-width="2" stroke-linecap="round" stroke-linejoin="round"/><path clip-rule="evenodd" d="M11 1h5v2.5C16 4.88 14.878 6 13.5 6 12.12 6 11 4.878 11 3.5V1zm25 0h5v2.5C41 4.88 39.879 6 38.5 6 37.12 6 36 4.878 36 3.5V1z" stroke="#BFD2F8" stroke-width="2" stroke-linecap="round" stroke-linejoin="round"/></svg>