<svg width="52" height="46" fill="none" xmlns="http://www.w3.org/2000/svg"><path clip-rule="evenodd" d="M17.748 15.474c-.364.224-1.05 1.633-.74 2.87.462 1.837 2.105 2.555 2.105 2.555s2.571 3.394 2.571 5.368c0 1.974 0 2.741-.689 4.388-.689 1.647-14.212 3.621-14.787 13.33h19.684l19.9.002c-.574-9.709-14.098-11.683-14.787-13.33-.689-1.647-.689-2.414-.689-4.388 0-1.974 2.571-5.368 2.571-5.368s1.643-.718 2.105-2.556c.311-1.236-.376-2.645-.74-2.869.974-2.973 2.92-13.222-8.144-13.59a.856.856 0 00-.147-.005c-11.133.371-9.187 10.62-8.212 13.593z" stroke="#1F2B6C" stroke-width="2" stroke-linecap="round" stroke-linejoin="round"/><path clip-rule="evenodd" d="M1 37.516c3.248-2.277 7.297-3.16 7.627-3.95.546-1.303.546-1.91.546-3.473s-2.035-4.25-2.035-4.25-1.301-.568-1.667-2.023c-.246-.979.298-2.094.586-2.271-.771-2.354-2.311-10.467 6.502-10.761a.685.685 0 01.116.003c1.9.064 3.316.495 4.36 1.157a16.74 16.74 0 00.713 3.526c-.364.224-1.05 1.633-.74 2.87.462 1.837 2.105 2.555 2.105 2.555s.054.07.145.197c-.046.169-.092.32-.136.454.288.178.832 1.293.586 2.272-.366 1.455-1.667 2.023-1.667 2.023s-2.035 2.687-2.035 4.25c0 1.302 0 1.941.316 2.873-4.2 1.826-9.75 4.872-10.114 11.017h19.684l19.9.002c-.37-6.26-6.123-9.304-10.348-11.118.291-.893.291-1.532.291-2.8 0-1.563-2.035-4.25-2.035-4.25s-1.3-.568-1.667-2.023c-.245-.978.298-2.094.587-2.271a9.452 9.452 0 01-.056-.176c.197-.281.323-.448.323-.448s1.643-.718 2.105-2.556c.31-1.236-.376-2.645-.74-2.869.265-.81.603-2.16.73-3.703 1.024-.577 2.374-.95 4.14-1.009a.665.665 0 01.115.004c8.759.292 7.218 8.405 6.447 10.758.289.178.832 1.293.586 2.272-.365 1.455-1.666 2.023-1.666 2.023s-2.035 2.687-2.035 4.25c0 1.563 0 2.17.545 3.473.339.81 4.599 1.72 7.886 4.136v6.416l-11.934-.001h-10.81l.001.025-15.753-.001H1v-6.603z" stroke="#1F2B6C" stroke-width="2" stroke-linecap="round" stroke-linejoin="round"/></svg>