<svg width="52" height="40" fill="none" xmlns="http://www.w3.org/2000/svg"><path d="M51 1.77H1v30h50v-30zm-2.083 30.209H3.083v3.125h45.834v-3.125zm-2.084 3.125H5.167v3.125h41.666v-3.125z" stroke="#FCFEFE" stroke-width="2" stroke-linecap="round" stroke-linejoin="round"/><path d="M25.749 28.06c4.44 0 8.039-4.953 8.039-11.062 0-6.108-3.6-11.06-8.04-11.06-4.44 0-8.039 4.952-8.039 11.06 0 6.11 3.6 11.061 8.04 11.061z" stroke="#FCFEFE" stroke-width="2" stroke-linecap="round" stroke-linejoin="round"/><path clip-rule="evenodd" d="M9.985 28.06h32.03c0-3.055 2.39-5.531 5.34-5.531V11.468c-2.95 0-5.34-2.476-5.34-5.53H9.986c0 3.054-2.39 5.53-5.339 5.53v11.06c2.948 0 5.339 2.477 5.339 5.531z" stroke="#FCFEFE" stroke-width="2" stroke-linecap="round" stroke-linejoin="round"/><path d="M12.183 18.578c.832 0 1.507-.707 1.507-1.58 0-.872-.675-1.58-1.507-1.58-.833 0-1.508.708-1.508 1.58 0 .873.675 1.58 1.508 1.58zm26.63 0c.832 0 1.507-.707 1.507-1.58 0-.872-.675-1.58-1.508-1.58-.832 0-1.507.708-1.507 1.58 0 .873.675 1.58 1.508 1.58z" stroke="#FCFEFE" stroke-width="2" stroke-linecap="round" stroke-linejoin="round"/></svg>