<svg width="24" height="24" fill="none" xmlns="http://www.w3.org/2000/svg"><path d="M16.872 8.314a2.07 2.07 0 00-1.187-1.186 3.458 3.458 0 00-1.16-.216c-.659-.03-.856-.037-2.525-.037s-1.866.008-2.525.037c-.397.005-.79.078-1.161.216a2.07 2.07 0 00-1.186 1.187 3.48 3.48 0 00-.216 1.16c-.03.659-.037.856-.037 2.525s.008 1.866.037 2.525c.005.396.078.79.216 1.161a2.07 2.07 0 001.187 1.186c.372.138.764.21 1.16.215.659.03.856.037 2.525.037s1.866-.006 2.525-.038c.396-.004.79-.076 1.161-.213a2.07 2.07 0 001.186-1.188c.138-.372.21-.764.215-1.16.03-.659.037-.856.037-2.525s-.006-1.866-.038-2.525a3.46 3.46 0 00-.213-1.161zM12 15.21a3.21 3.21 0 110-6.42 3.21 3.21 0 010 6.42zm3.336-5.796a.75.75 0 110-1.5.75.75 0 010 1.5zM14.084 12a2.085 2.085 0 11-4.17 0 2.085 2.085 0 014.17 0zM12 0a12 12 0 100 24 12 12 0 000-24zm6.212 14.576a4.59 4.59 0 01-.29 1.518 3.196 3.196 0 01-1.828 1.827 4.6 4.6 0 01-1.517.291c-.667.03-.88.038-2.577.038s-1.91-.008-2.578-.038a4.586 4.586 0 01-1.516-.29 3.195 3.195 0 01-1.827-1.828 4.588 4.588 0 01-.292-1.517c-.03-.667-.037-.88-.037-2.577s.008-1.91.037-2.578c.01-.518.109-1.03.29-1.516a3.195 3.195 0 011.83-1.829c.485-.181.997-.28 1.515-.29.668-.03.88-.037 2.578-.037 1.697 0 1.91.008 2.578.037.518.01 1.03.109 1.516.29a3.195 3.195 0 011.827 1.83c.182.485.28.997.291 1.515.03.668.038.88.038 2.578 0 1.697-.008 1.91-.038 2.578v-.002z" fill="#1F2B6C"/></svg>