<svg width="191" height="27" fill="none" xmlns="http://www.w3.org/2000/svg"><path d="M4.04 5.3v19.08l2.88 1.08V26H.08v-.54l2.88-1.08V1.88L.8 1.34V.8h4.5c1.248 0 2.232.264 2.952.792.744.504 1.38 1.26 1.908 2.268l7.848 15.012L24.02 3.86c.408-1.056.96-1.824 1.656-2.304C26.372 1.052 27.44.8 28.88.8h3.78v.54l-2.16.54v23.04l2.16.54V26H22.4v-.54l2.16-.54V5.3L16.1 26.36h-1.08L4.04 5.3zm31.881 20.16l2.16-.54V1.88l-2.16-.54V.8h19.26v6.48h-1.08a5.091 5.091 0 01-1.188-1.368A8.117 8.117 0 0151.761 1.7h-7.74v11.34h4.14c.168-.912.48-1.764.936-2.556.192-.36.42-.708.684-1.044h1.08v8.1h-1.08a7.09 7.09 0 01-.684-1.044 7.982 7.982 0 01-.936-2.556h-4.14V25.1h8.46c0-1.512.384-2.916 1.152-4.212a5.091 5.091 0 011.188-1.368h1.08V26h-19.98v-.54zm23.203 0l2.16-.54V1.88l-2.16-.54V.8h9.18c4.296 0 7.584 1.104 9.864 3.312 2.304 2.208 3.456 5.304 3.456 9.288s-1.152 7.08-3.456 9.288C75.888 24.896 72.6 26 68.304 26h-9.18v-.54zm9.18-.36c2.232 0 3.96-.9 5.184-2.7 1.224-1.824 1.836-4.824 1.836-9s-.612-7.164-1.836-8.964C72.264 2.612 70.536 1.7 68.304 1.7h-1.08v23.4h1.08z" fill="#1F2B6C"/><path d="M84.859 25.46l2.16-.54V1.88l-2.16-.54V.8h9.18c4.296 0 7.584 1.104 9.864 3.312 2.304 2.208 3.456 5.304 3.456 9.288s-1.152 7.08-3.456 9.288C101.623 24.896 98.335 26 94.039 26h-9.18v-.54zm9.18-.36c2.232 0 3.96-.9 5.184-2.7 1.224-1.824 1.836-4.824 1.836-9s-.612-7.164-1.836-8.964C97.999 2.612 96.27 1.7 94.039 1.7h-1.08v23.4h1.08zm16.554.9v-.54l2.16-.54V1.88l-2.16-.54V.8h10.26v.54l-2.16.54v23.04l2.16.54V26h-10.26zm25.912.54c-3.84 0-6.84-1.14-9-3.42-2.16-2.28-3.24-5.52-3.24-9.72 0-2.76.468-5.124 1.404-7.092.96-1.992 2.292-3.492 3.996-4.5C131.393.776 133.385.26 135.641.26c1.368 0 2.748.396 4.14 1.188a8.249 8.249 0 011.584 1.152c.408-.624.828-1.116 1.26-1.476.432-.312.672-.48.72-.504h.9v6.84h-1.44a10.594 10.594 0 00-1.404-3.132 7.796 7.796 0 00-2.16-2.268c-.84-.6-1.812-.9-2.916-.9-1.656 0-3.036.96-4.14 2.88-1.08 1.92-1.62 5.04-1.62 9.36 0 4.392.588 7.536 1.764 9.432 1.2 1.872 2.832 2.808 4.896 2.808 1.128 0 2.196-.312 3.204-.936a7.448 7.448 0 002.484-2.556c.648-1.056.972-2.172.972-3.348h.9c0 1.368-.372 2.652-1.116 3.852-.72 1.176-1.716 2.124-2.988 2.844-1.248.696-2.64 1.044-4.176 1.044zm8.13-1.08l2.88-1.08 9.9-23.94h1.08l10.26 24.48 1.8.54V26h-4.32c-1.248 0-2.268-.276-3.06-.828a5.204 5.204 0 01-1.764-2.232l-1.836-4.32h-8.604l-2.376 5.76 2.7 1.08V26h-6.66v-.54zm6.696-7.74h7.884l-3.96-9.468-3.924 9.468zm20.293 7.74l2.16-.54V1.88l-2.16-.54V.8h10.26v.54l-2.16.54V25.1h7.74c0-1.512.384-2.916 1.152-4.212a5.091 5.091 0 011.188-1.368h1.08V26h-19.26v-.54z" fill="#159EEC"/></svg>