<svg width="116" height="35" fill="none" xmlns="http://www.w3.org/2000/svg"><path d="M8.016 3.664c2.347 0 4.405.459 6.176 1.376 1.792.917 3.168 2.23 4.128 3.936.981 1.685 1.472 3.648 1.472 5.888 0 2.24-.49 4.203-1.472 5.888-.96 1.664-2.336 2.955-4.128 3.872-1.77.917-3.83 1.376-6.176 1.376H.208V3.664h7.808zm-.16 18.528c2.347 0 4.16-.64 5.44-1.92 1.28-1.28 1.92-3.083 1.92-5.408s-.64-4.139-1.92-5.44c-1.28-1.323-3.093-1.984-5.44-1.984H4.688v14.752h3.168zM25.418 6.16c-.79 0-1.451-.245-1.985-.736-.511-.512-.767-1.141-.767-1.888 0-.747.256-1.365.767-1.856.534-.512 1.195-.768 1.985-.768.789 0 1.44.256 1.951.768.534.49.8 1.11.8 1.856 0 .747-.266 1.376-.8 1.888-.511.49-1.162.736-1.951.736zm2.207 2.112V26h-4.48V8.272h4.48zm11.37-.288c1.323 0 2.486.267 3.489.8 1.002.512 1.792 1.184 2.368 2.016V8.272h4.512v17.856c0 1.643-.33 3.104-.992 4.384-.662 1.301-1.654 2.325-2.976 3.072-1.323.768-2.923 1.152-4.8 1.152-2.518 0-4.587-.587-6.208-1.76-1.6-1.173-2.507-2.773-2.72-4.8h4.448c.234.81.736 1.45 1.504 1.92.79.49 1.738.736 2.848.736 1.301 0 2.357-.395 3.168-1.184.81-.768 1.216-1.941 1.216-3.52v-2.752c-.576.832-1.376 1.525-2.4 2.08-1.003.555-2.155.832-3.456.832-1.494 0-2.859-.384-4.096-1.152-1.238-.768-2.219-1.845-2.944-3.232-.704-1.408-1.056-3.019-1.056-4.832 0-1.792.352-3.381 1.056-4.768.725-1.387 1.696-2.453 2.912-3.2 1.237-.747 2.613-1.12 4.128-1.12zm5.857 9.152c0-1.088-.214-2.016-.64-2.784-.427-.79-1.003-1.387-1.728-1.792a4.53 4.53 0 00-2.336-.64c-.832 0-1.6.203-2.304.608-.704.405-1.28 1.003-1.728 1.792-.427.768-.64 1.685-.64 2.752 0 1.067.213 2.005.64 2.816.448.79 1.024 1.397 1.728 1.824.725.427 1.493.64 2.304.64.832 0 1.61-.203 2.336-.608a4.656 4.656 0 001.728-1.792c.426-.79.64-1.728.64-2.816zM56.012 6.16c-.79 0-1.451-.245-1.985-.736-.512-.512-.768-1.141-.768-1.888 0-.747.256-1.365.768-1.856.534-.512 1.195-.768 1.984-.768.79 0 1.44.256 1.952.768.534.49.8 1.11.8 1.856 0 .747-.266 1.376-.8 1.888-.512.49-1.162.736-1.952.736zm2.207 2.112V26h-4.48V8.272h4.48zm9.643 3.68v8.576c0 .597.138 1.035.416 1.312.298.256.789.384 1.471.384h2.08V26h-2.816c-3.776 0-5.664-1.835-5.664-5.504v-8.544h-2.111v-3.68h2.111V3.888h4.513v4.384h3.968v3.68h-3.968zm11.606-8.288v13.824c0 1.515.394 2.677 1.184 3.488.79.79 1.898 1.184 3.328 1.184 1.45 0 2.57-.395 3.36-1.184.79-.81 1.184-1.973 1.184-3.488V3.664h4.512v13.792c0 1.899-.416 3.51-1.248 4.832a7.723 7.723 0 01-3.296 2.944c-1.366.661-2.89.992-4.576.992-1.664 0-3.179-.33-4.544-.992a7.603 7.603 0 01-3.2-2.944c-.79-1.323-1.184-2.933-1.184-4.832V3.664h4.48zM110.74 26l-4.832-7.52-4.384 7.52h-5.056l7.04-11.264-7.136-11.072h5.152l4.832 7.488 4.352-7.488h5.056l-7.008 11.232L115.892 26h-5.152z" fill="#3B71FE"/></svg>