<svg width="150" height="22" fill="none" xmlns="http://www.w3.org/2000/svg"><path d="M3.92 4.9v14.84l2.24.84V21H.84v-.42l2.24-.84V2.24L1.4 1.82V1.4h3.5c.97 0 1.736.205 2.296.616.579.392 1.073.98 1.484 1.764l6.104 11.676L19.46 3.78c.317-.821.747-1.419 1.288-1.792.541-.392 1.372-.588 2.492-.588h2.94v.42l-1.68.42v17.92l1.68.42V21H18.2v-.42l1.68-.42V4.9L13.3 21.28h-.84L3.92 4.9zm24.796 15.68l1.68-.42V2.24l-1.68-.42V1.4h14.98v5.04h-.84a3.959 3.959 0 01-.924-1.064 6.313 6.313 0 01-.896-3.276h-6.02v8.82h3.22c.131-.71.374-1.372.728-1.988.15-.28.327-.55.532-.812h.84v6.3h-.84a5.512 5.512 0 01-.532-.812 6.208 6.208 0 01-.728-1.988h-3.22v8.68h6.58c0-1.176.3-2.268.896-3.276.262-.43.57-.784.924-1.064h.84V21h-15.54v-.42zm18.047 0l1.68-.42V2.24l-1.68-.42V1.4h7.14c3.342 0 5.899.859 7.672 2.576 1.792 1.717 2.688 4.125 2.688 7.224s-.896 5.507-2.688 7.224C59.802 20.141 57.245 21 53.903 21h-7.14v-.42zm7.14-.28c1.736 0 3.08-.7 4.032-2.1.952-1.419 1.428-3.752 1.428-7s-.476-5.572-1.428-6.972C56.983 2.809 55.64 2.1 53.903 2.1h-.84v18.2h.84z" fill="#BFD2F8"/><path d="M66.779 20.58l1.68-.42V2.24l-1.68-.42V1.4h7.14c3.341 0 5.899.859 7.672 2.576 1.792 1.717 2.688 4.125 2.688 7.224s-.896 5.507-2.688 7.224C79.818 20.141 77.26 21 73.919 21h-7.14v-.42zm7.14-.28c1.736 0 3.08-.7 4.032-2.1.952-1.419 1.428-3.752 1.428-7s-.476-5.572-1.428-6.972C76.999 2.809 75.655 2.1 73.919 2.1h-.84v18.2h.84zm12.876.7v-.42l1.68-.42V2.24l-1.68-.42V1.4h7.98v.42l-1.68.42v17.92l1.68.42V21h-7.98zm20.153.42c-2.987 0-5.32-.887-7-2.66-1.68-1.773-2.52-4.293-2.52-7.56 0-2.147.364-3.985 1.092-5.516.747-1.55 1.783-2.716 3.108-3.5 1.344-.803 2.893-1.204 4.648-1.204 1.064 0 2.137.308 3.22.924a6.43 6.43 0 011.232.896c.317-.485.644-.868.98-1.148.336-.243.523-.373.56-.392h.7v5.32h-1.12a8.257 8.257 0 00-1.092-2.436 6.064 6.064 0 00-1.68-1.764c-.653-.467-1.409-.7-2.268-.7-1.288 0-2.361.747-3.22 2.24-.84 1.493-1.26 3.92-1.26 7.28 0 3.416.457 5.861 1.372 7.336.933 1.456 2.203 2.184 3.808 2.184.877 0 1.708-.243 2.492-.728a5.787 5.787 0 001.932-1.988c.504-.821.756-1.69.756-2.604h.7a5.584 5.584 0 01-.868 2.996c-.56.915-1.335 1.652-2.324 2.212-.971.541-2.053.812-3.248.812zm6.324-.84l2.24-.84 7.7-18.62h.84l7.98 19.04 1.4.42V21h-3.36c-.971 0-1.764-.215-2.38-.644a4.05 4.05 0 01-1.372-1.736l-1.428-3.36H118.2l-1.848 4.48 2.1.84V21h-5.18v-.42zm5.208-6.02h6.132l-3.08-7.364-3.052 7.364zm15.783 6.02l1.68-.42V2.24l-1.68-.42V1.4h7.98v.42l-1.68.42V20.3h6.02c0-1.176.299-2.268.896-3.276.262-.43.57-.784.924-1.064h.84V21h-14.98v-.42z" fill="#FCFEFE"/></svg>