<svg width="284" height="110" fill="none" xmlns="http://www.w3.org/2000/svg"><path d="M279.765 109.31a1 1 0 001.207-.737l2.112-8.749a1 1 0 00-1.944-.47l-1.877 7.778-7.777-1.878a1.001 1.001 0 00-.469 1.945l8.748 2.111zm1.088-1.493c-.341-.559-.687-1.12-1.036-1.682l-1.699 1.054c.346.559.689 1.115 1.029 1.671l1.706-1.043zm-3.171-5.071a295.084 295.084 0 00-2.201-3.39l-1.67 1.101a302.644 302.644 0 012.186 3.366l1.685-1.077zm-4.418-6.706a305.912 305.912 0 00-2.291-3.334l-1.641 1.144c.771 1.106 1.53 2.21 2.277 3.312l1.655-1.122zm-4.595-6.593a305.082 305.082 0 00-2.363-3.254l-1.611 1.185a302.214 302.214 0 012.348 3.234l1.626-1.165zm-4.767-6.477c-.801-1.06-1.613-2.12-2.435-3.178l-1.58 1.226a317.778 317.778 0 012.42 3.158l1.595-1.206zm-4.932-6.352a312.431 312.431 0 00-2.512-3.108l-1.548 1.267a293.927 293.927 0 012.496 3.088l1.564-1.247zm-5.08-6.2a291.44 291.44 0 00-2.608-3.06l-1.513 1.308c.873 1.01 1.736 2.023 2.591 3.039l1.53-1.288zm-5.25-6.075a296.06 296.06 0 00-2.695-2.991l-1.476 1.349c.9.986 1.792 1.976 2.676 2.97l1.495-1.328zm-5.42-5.933a273.127 273.127 0 00-2.771-2.907l-1.438 1.39c.925.957 1.843 1.92 2.752 2.887l1.457-1.37zm-5.588-5.777a262.982 262.982 0 00-2.854-2.823l-1.395 1.433c.952.927 1.896 1.861 2.832 2.801l1.417-1.41zm-5.754-5.605a263.082 263.082 0 00-2.944-2.736l-1.35 1.476c.981.897 1.955 1.802 2.921 2.715l1.373-1.454zm-5.931-5.423a239.45 239.45 0 00-3.031-2.637l-1.3 1.52c1.009.863 2.011 1.735 3.006 2.615l1.325-1.498zm-6.112-5.224a214.08 214.08 0 00-3.122-2.53l-1.244 1.566c1.038.825 2.069 1.66 3.094 2.506l1.272-1.542zm-6.292-5.003c-1.067-.816-2.14-1.62-3.22-2.414l-1.184 1.612c1.069.785 2.132 1.582 3.189 2.39l1.215-1.588zm-6.479-4.759a193.63 193.63 0 00-3.32-2.285l-1.116 1.659c1.101.741 2.196 1.495 3.285 2.262l1.151-1.636zm-6.68-4.495a178.034 178.034 0 00-3.408-2.134l-1.042 1.707c1.129.69 2.252 1.393 3.369 2.11l1.081-1.683zm-6.874-4.194a163.104 163.104 0 00-3.502-1.97l-.958 1.756c1.158.633 2.311 1.281 3.459 1.945l1.001-1.731zm-7.066-3.858a151.474 151.474 0 00-3.607-1.792l-.866 1.803c1.192.572 2.378 1.162 3.559 1.768l.914-1.78zm-7.257-3.484a140.441 140.441 0 00-3.711-1.593l-.762 1.849c1.224.504 2.443 1.028 3.657 1.57l.816-1.826zm-7.453-3.071a128.122 128.122 0 00-3.799-1.368l-.647 1.893c1.251.428 2.498.877 3.74 1.346l.706-1.871zm-7.635-2.612a119.427 119.427 0 00-3.873-1.116l-.521 1.93a118.2 118.2 0 013.808 1.098l.586-1.912zm-7.791-2.101c-1.31-.305-2.625-.587-3.944-.844l-.383 1.962c1.295.253 2.586.53 3.874.83l.453-1.948zm-7.92-1.545c-1.33-.209-2.664-.392-4.002-.55l-.235 1.986c1.313.155 2.622.335 3.927.54l.31-1.976zm-8.02-.946c-1.34-.106-2.684-.185-4.03-.238l-.078 1.999c1.32.051 2.637.129 3.951.232l.157-1.993zM132.287 0a98.75 98.75 0 00-4.025.089l.085 1.998A96.691 96.691 0 01132.291 2l-.004-2zm-8.064.344a97.732 97.732 0 00-4.018.422l.249 1.984a95.975 95.975 0 013.936-.413l-.167-1.993zm-8.006 1.007a98.507 98.507 0 00-3.999.757l.412 1.957a96.188 96.188 0 013.919-.742l-.332-1.972zm-7.902 1.661c-1.299.33-2.6.686-3.902 1.072L104.98 6a99.017 99.017 0 013.826-1.05l-.491-1.939zm-7.767 2.3c-1.254.425-2.51.878-3.766 1.359l.714 1.868c1.233-.472 2.465-.916 3.695-1.333l-.643-1.894zm-7.537 2.883a111.635 111.635 0 00-3.671 1.643l.85 1.81a109.479 109.479 0 013.605-1.613l-.784-1.84zm-7.272 3.41a117.96 117.96 0 00-3.603 1.925l.972 1.747a117.582 117.582 0 013.543-1.892l-.912-1.78zm-7.062 3.923c-1.136.68-2.271 1.385-3.407 2.114l1.08 1.683a127.125 127.125 0 013.355-2.082l-1.028-1.715zm-6.814 4.376a140.599 140.599 0 00-3.257 2.304l1.177 1.616c1.07-.78 2.14-1.536 3.211-2.27l-1.131-1.65zm-6.455 4.701a157.19 157.19 0 00-3.196 2.533l1.263 1.55a160.227 160.227 0 013.154-2.5l-1.221-1.583zm-6.283 5.113c-.995.852-1.988 1.724-2.982 2.616l1.337 1.488a165.17 165.17 0 012.946-2.586l-1.301-1.518zm-5.96 5.356c-.988.93-1.975 1.88-2.962 2.851l1.403 1.426c.976-.961 1.953-1.901 2.93-2.82l-1.371-1.457zm-5.728 5.63a201.56 201.56 0 00-2.763 2.89l1.459 1.368c.911-.972 1.823-1.926 2.735-2.86l-1.431-1.397zm-5.523 5.892a221.13 221.13 0 00-2.682 3.031l1.51 1.312a218.55 218.55 0 012.658-3.004l-1.486-1.339zm-5.237 6.023a240.444 240.444 0 00-2.551 3.092l1.553 1.26a241.89 241.89 0 012.53-3.066l-1.532-1.286zm-5.098 6.284a261.647 261.647 0 00-2.47 3.199l1.592 1.21a259.871 259.871 0 012.451-3.174l-1.573-1.235zm-4.824 6.343a286.07 286.07 0 00-2.35 3.233l1.626 1.165a283.06 283.06 0 012.333-3.21l-1.61-1.188zm-4.695 6.556a307.95 307.95 0 00-2.323 3.387l1.657 1.12a306.234 306.234 0 012.308-3.364l-1.642-1.143zm-4.489 6.634a334.08 334.08 0 00-2.162 3.326l1.684 1.08a332.471 332.471 0 012.148-3.306l-1.67-1.1zm-4.319 6.732a359.893 359.893 0 00-2.152 3.486l1.708 1.04a357.856 357.856 0 012.14-3.466l-1.696-1.06zm-4.225 6.927a388.07 388.07 0 00-1.987 3.38l1.729 1.005a385.397 385.397 0 011.977-3.362l-1.719-1.023zm-3.97 6.83a448.412 448.412 0 00-1.98 3.523l1.749.971a402.211 402.211 0 011.97-3.505l-1.74-.988zm-3.953 7.116a383.93 383.93 0 00-.985 1.824l1.762.946c.327-.608.653-1.213.98-1.815l-1.757-.955z" fill="#3B71FE"/></svg>