<svg width="285" height="110" fill="none" xmlns="http://www.w3.org/2000/svg"><path d="M281.458 1.212a1 1 0 00-1.246-.67l-8.618 2.596a1 1 0 00.577 1.915l7.66-2.307 2.307 7.66a1 1 0 101.915-.577l-2.595-8.617zM.647 2.022c.341.559.687 1.12 1.036 1.682l1.699-1.055A285.62 285.62 0 012.353.979L.647 2.02zm3.171 5.07c.72 1.126 1.454 2.256 2.201 3.39l1.67-1.1a297.725 297.725 0 01-2.186-3.367L3.818 7.093zM8.236 13.8c.751 1.108 1.515 2.22 2.291 3.333l1.64-1.144c-.77-1.106-1.53-2.21-2.276-3.312L8.236 13.8zm4.595 6.593a313.297 313.297 0 002.363 3.254l1.61-1.186a310.37 310.37 0 01-2.347-3.233l-1.626 1.165zm4.767 6.476c.801 1.06 1.613 2.12 2.435 3.179l1.58-1.227a311.093 311.093 0 01-2.42-3.158l-1.595 1.206zm4.932 6.352a308.468 308.468 0 002.512 3.108l1.548-1.267a305.853 305.853 0 01-2.496-3.088L22.53 33.22zm5.08 6.201c.86 1.023 1.73 2.042 2.608 3.059l1.513-1.308a298.68 298.68 0 01-2.59-3.038L27.61 39.42zm5.25 6.074c.89 1.001 1.788 1.998 2.695 2.991l1.476-1.349c-.9-.986-1.792-1.976-2.676-2.97l-1.495 1.328zm5.42 5.933c.915.974 1.84 1.944 2.771 2.907l1.438-1.39c-.925-.957-1.843-1.92-2.752-2.887l-1.457 1.37zm5.588 5.777c.943.947 1.895 1.888 2.854 2.823l1.395-1.433a263.578 263.578 0 01-2.832-2.801l-1.417 1.411zm5.754 5.605c.974.92 1.955 1.831 2.944 2.736l1.35-1.476a242.117 242.117 0 01-2.92-2.714l-1.374 1.454zm5.931 5.423a236.3 236.3 0 003.031 2.637l1.3-1.52a234.538 234.538 0 01-3.006-2.615l-1.325 1.498zm6.111 5.225c1.034.853 2.075 1.696 3.123 2.529l1.244-1.565a220.308 220.308 0 01-3.094-2.507l-1.273 1.543zm6.293 5.002c1.067.816 2.14 1.621 3.22 2.414l1.184-1.611a204.274 204.274 0 01-3.189-2.391l-1.215 1.588zm6.479 4.759c1.1.774 2.207 1.536 3.32 2.285l1.116-1.659a189.917 189.917 0 01-3.285-2.262l-1.151 1.636zm6.68 4.495a177.87 177.87 0 003.408 2.134l1.042-1.707a175.549 175.549 0 01-3.37-2.11l-1.08 1.683zm6.874 4.195c1.161.671 2.329 1.328 3.502 1.969l.958-1.755a161.775 161.775 0 01-3.459-1.946l-1.001 1.731zm7.066 3.857c1.197.615 2.4 1.212 3.607 1.793l.866-1.803a149.376 149.376 0 01-3.56-1.769l-.913 1.78zm7.257 3.484a138.49 138.49 0 003.711 1.593l.762-1.849a137.504 137.504 0 01-3.657-1.57l-.816 1.826zm7.453 3.072c1.261.476 2.527.932 3.799 1.367l.647-1.892a129.48 129.48 0 01-3.74-1.347l-.706 1.872zm7.635 2.611c1.286.394 2.577.767 3.873 1.116l.521-1.931a115.17 115.17 0 01-3.808-1.097l-.586 1.912zm7.79 2.101c1.311.305 2.626.587 3.945.845l.383-1.963c-1.295-.253-2.587-.53-3.874-.83l-.454 1.948zm7.921 1.545c1.33.209 2.664.393 4.002.551l.235-1.986a103.478 103.478 0 01-3.927-.541l-.31 1.976zm8.02.947c1.34.105 2.684.184 4.03.237l.078-1.999a99.918 99.918 0 01-3.951-.232l-.157 1.994zm8.08.312a98.554 98.554 0 004.026-.089l-.085-1.998a96.296 96.296 0 01-3.944.087l.003 2zm8.065-.344a98.616 98.616 0 004.018-.421l-.249-1.985a94.818 94.818 0 01-3.936.413l.167 1.993zm8.005-1.007a97.892 97.892 0 004-.756l-.412-1.957a97.695 97.695 0 01-3.919.741l.331 1.972zm7.903-1.661c1.299-.329 2.6-.686 3.902-1.072l-.567-1.917a98.618 98.618 0 01-3.826 1.05l.491 1.939zm7.767-2.299c1.254-.426 2.51-.879 3.766-1.359l-.714-1.868c-1.233.471-2.465.915-3.695 1.333l.643 1.894zm7.537-2.883A110.35 110.35 0 00192.16 100l-.849-1.81a110.724 110.724 0 01-3.605 1.614l.783 1.84zm7.272-3.41a118.765 118.765 0 003.603-1.925l-.972-1.748a118.335 118.335 0 01-3.543 1.893l.912 1.78zm7.062-3.923c1.135-.68 2.271-1.386 3.407-2.115l-1.081-1.683a126.065 126.065 0 01-3.354 2.082l1.028 1.716zm6.814-4.377a139.1 139.1 0 003.257-2.304l-1.177-1.616c-1.071.78-2.141 1.536-3.211 2.27l1.131 1.65zm6.455-4.7a152.801 152.801 0 003.196-2.534l-1.263-1.55a156.586 156.586 0 01-3.154 2.5l1.221 1.583zm6.283-5.113a167.47 167.47 0 002.982-2.617l-1.337-1.488c-.982.883-1.964 1.744-2.946 2.586l1.301 1.519zm5.96-5.357c.988-.93 1.975-1.88 2.962-2.851l-1.403-1.425c-.976.96-1.953 1.9-2.93 2.82l1.371 1.456zm5.728-5.63c.922-.945 1.843-1.908 2.763-2.89l-1.459-1.368c-.911.972-1.823 1.926-2.735 2.861l1.431 1.397zm5.523-5.892c.894-.992 1.789-2.002 2.682-3.03l-1.51-1.313c-.885 1.02-1.771 2.02-2.658 3.004l1.486 1.34zm5.237-6.023a235.56 235.56 0 002.551-3.092l-1.553-1.26a239.108 239.108 0 01-2.53 3.066l1.532 1.286zm5.098-6.284a267.52 267.52 0 002.47-3.199l-1.592-1.21a273.243 273.243 0 01-2.451 3.174l1.573 1.235zm4.824-6.343a290.55 290.55 0 002.35-3.233l-1.626-1.165a285.564 285.564 0 01-2.333 3.21l1.609 1.188zm4.695-6.556a318.008 318.008 0 002.323-3.387l-1.657-1.12a313.909 313.909 0 01-2.308 3.365l1.642 1.142zm4.489-6.634a344.472 344.472 0 002.162-3.326l-1.684-1.08a337.952 337.952 0 01-2.148 3.306l1.67 1.1zm4.319-6.731c.718-1.149 1.435-2.31 2.152-3.486l-1.708-1.041a348.297 348.297 0 01-2.14 3.466l1.696 1.06zm4.225-6.928a374.455 374.455 0 001.987-3.38l-1.729-1.005a370.582 370.582 0 01-1.977 3.363l1.719 1.022zm3.971-6.83a404.75 404.75 0 001.978-3.522l-1.748-.971a428.173 428.173 0 01-1.969 3.505l1.739.988zm3.952-7.116c.329-.605.657-1.213.985-1.824l-1.762-.946c-.327.608-.653 1.213-.98 1.815l1.757.955z" fill="#3B71FE"/></svg>