<svg width="32" height="32" fill="none" xmlns="http://www.w3.org/2000/svg"><path d="M27.2 0H4.8A4.8 4.8 0 000 4.8v22.4A4.8 4.8 0 004.8 32h22.4a4.8 4.8 0 004.8-4.8V4.8A4.8 4.8 0 0027.2 0zm1.6 27.2a1.6 1.6 0 01-1.6 1.6H4.8a1.6 1.6 0 01-1.6-1.6V4.8a1.6 1.6 0 011.6-1.6h22.4a1.6 1.6 0 011.6 1.6v22.4zm-4.8-16h-3.2V8a1.6 1.6 0 00-1.6-1.6h-6.4A1.6 1.6 0 0011.2 8v3.2H8a1.6 1.6 0 00-1.6 1.6v6.4A1.6 1.6 0 008 20.8h3.2V24a1.6 1.6 0 001.6 1.6h6.4a1.6 1.6 0 001.6-1.6v-3.2H24a1.6 1.6 0 001.6-1.6v-6.4a1.6 1.6 0 00-1.6-1.6zm-1.6 6.4h-3.2a1.6 1.6 0 00-1.6 1.6v3.2h-3.2v-3.2a1.6 1.6 0 00-1.6-1.6H9.6v-3.2h3.2a1.6 1.6 0 001.6-1.6V9.6h3.2v3.2a1.6 1.6 0 001.6 1.6h3.2v3.2z" fill="#159EEC"/></svg>