<svg width="32" height="32" fill="none" xmlns="http://www.w3.org/2000/svg"><path d="M11.76 15.053a1.334 1.334 0 101.879 1.894 1.334 1.334 0 00-1.879-1.894zm3.293 3.307a1.333 1.333 0 101.892 1.88 1.333 1.333 0 00-1.892-1.88zm12-13.333A8 8 0 0016 4.733 8 8 0 005.013 5a8 8 0 00-.253 11 8 8 0 005.907 13.333A7.893 7.893 0 0016 27.267 8 8 0 0027 27a8 8 0 00.24-11A8 8 0 0027 5l.053.027zm-1.946 1.866a5.333 5.333 0 01.227 7.187L17.92 6.667a5.427 5.427 0 017.187.226zM6.893 25.107a5.333 5.333 0 01-.226-7.187l7.466 7.467a5.44 5.44 0 01-7.24-.28zm18.214 0a5.44 5.44 0 01-7.52 0L6.92 14.44a5.333 5.333 0 010-7.52 5.333 5.333 0 017.52 0l10.667 10.667a5.334 5.334 0 010 7.52zM18.36 15.053a1.334 1.334 0 101.879 1.894 1.334 1.334 0 00-1.879-1.894zm-3.306-3.293a1.333 1.333 0 101.89 1.88 1.333 1.333 0 00-1.89-1.88z" fill="#159EEC"/></svg>