<svg width="27" height="27" fill="none" xmlns="http://www.w3.org/2000/svg"><path d="M9.067 12.393a1.334 1.334 0 101.878 1.894 1.334 1.334 0 00-1.878-1.894zM12.36 15.7a1.333 1.333 0 101.891 1.88 1.333 1.333 0 00-1.89-1.88zm12-13.334a8 8 0 00-11.053-.293A8 8 0 002.32 2.34a8 8 0 00-.253 11 8 8 0 005.906 13.333 7.894 7.894 0 005.334-2.066 8 8 0 0011-.267 8 8 0 00.24-11 8 8 0 00-.24-11l.053.026zm-1.947 1.867a5.333 5.333 0 01.227 7.187l-7.413-7.414a5.427 5.427 0 017.186.227zM4.2 22.447a5.333 5.333 0 01-.227-7.187l7.467 7.467a5.44 5.44 0 01-7.24-.28zm18.213 0a5.44 5.44 0 01-7.52 0L4.227 11.78a5.333 5.333 0 010-7.52 5.333 5.333 0 017.52 0l10.666 10.667a5.333 5.333 0 010 7.52zm-6.746-10.054a1.333 1.333 0 101.878 1.894 1.333 1.333 0 00-1.878-1.894zM12.36 9.1a1.333 1.333 0 101.892 1.88A1.333 1.333 0 0012.36 9.1z" fill="#BFD2F8"/></svg>