<svg width="32" height="28" fill="none" xmlns="http://www.w3.org/2000/svg"><path d="M19.238 12.423h-1.601v-1.587c0-.421-.17-.825-.47-1.122a1.61 1.61 0 00-2.265 0 1.58 1.58 0 00-.469 1.122v1.587h-1.601c-.425 0-.832.167-1.133.464a1.58 1.58 0 000 2.244c.3.298.708.465 1.133.465h1.601v1.587c0 .42.17.824.47 1.122a1.61 1.61 0 002.264 0c.3-.298.47-.701.47-1.122v-1.587h1.601a1.61 1.61 0 001.133-.465 1.58 1.58 0 000-2.244 1.61 1.61 0 00-1.133-.464zm9.866-9.52A10.116 10.116 0 0022.744.04a10.142 10.142 0 00-6.709 1.925A10.111 10.111 0 002.431 3.46a9.892 9.892 0 00-2.423 6.879 9.906 9.906 0 002.958 6.67l9.61 9.6A4.828 4.828 0 0015.97 28c1.273 0 2.494-.5 3.395-1.392l9.61-9.6a9.946 9.946 0 002.22-3.214 9.87 9.87 0 00.069-7.638 9.943 9.943 0 00-2.161-3.254zm-2.258 11.836l-9.61 9.52a1.602 1.602 0 01-1.137.47 1.614 1.614 0 01-1.137-.47l-9.61-9.52a6.774 6.774 0 01-1.959-4.76 6.77 6.77 0 011.96-4.76 6.872 6.872 0 014.804-1.954c1.799 0 3.525.702 4.805 1.954a1.602 1.602 0 001.137.47 1.615 1.615 0 001.137-.47 6.872 6.872 0 014.805-1.954c1.799 0 3.525.702 4.805 1.954a6.775 6.775 0 011.975 4.776c0 1.787-.71 3.503-1.975 4.776v-.032z" fill="#BFD2F8"/></svg>