<svg width="50" height="44" fill="none" xmlns="http://www.w3.org/2000/svg"><path d="M8.46 21.988h-.954l17.506 17.57 14.377-14.43h4.425L25.012 44 3.863 22.797a12.125 12.125 0 01-1.516-1.852 14.111 14.111 0 01-1.149-2.098h5.941l6.92-6.92 10.953 10.969 7.824-7.829 3.79 3.78h8.68c.521-.835.92-1.718 1.198-2.65.277-.933.415-1.89.415-2.872 0-1.423-.265-2.748-.794-3.975a10.032 10.032 0 00-2.176-3.203 10.11 10.11 0 00-3.228-2.135c-1.23-.515-2.555-.773-3.973-.773-1.369 0-2.583.217-3.643.65a12.236 12.236 0 00-2.934 1.706 22.002 22.002 0 00-2.58 2.393c-.823.891-1.682 1.795-2.579 2.711a98.325 98.325 0 01-2.567-2.674c-.831-.9-1.7-1.71-2.604-2.43a12.897 12.897 0 00-2.958-1.767c-1.068-.458-2.27-.687-3.607-.687a9.848 9.848 0 00-3.948.798A10.242 10.242 0 006.1 6.123a10.284 10.284 0 00-2.176 3.239 9.947 9.947 0 00-.794 3.963c0 .77.09 1.563.269 2.38H.196a8.34 8.34 0 01-.16-1.177A18.948 18.948 0 010 13.35c0-1.85.346-3.583 1.04-5.203a13.543 13.543 0 012.835-4.245 13.239 13.239 0 014.218-2.86C9.707.349 11.434 0 13.276 0c1.353 0 2.56.155 3.619.466 1.06.311 2.041.74 2.946 1.289a15.771 15.771 0 012.592 1.975 80.744 80.744 0 012.58 2.528 80.638 80.638 0 012.579-2.528 15.763 15.763 0 012.591-1.975A12.386 12.386 0 0133.13.466C34.19.156 35.395 0 36.748 0c1.826 0 3.545.348 5.16 1.043a13.447 13.447 0 014.217 2.834 13.25 13.25 0 012.836 4.221C49.654 9.718 50 11.444 50 13.276a13.22 13.22 0 01-.831 4.626 13.769 13.769 0 01-2.372 4.086H35.306l-2.47-2.503-7.824 7.877L14.06 16.344l-5.6 5.644z" fill="#159EEC"/></svg>