<svg viewBox="0 0 116 463" xmlns="http://www.w3.org/2000/svg" xmlns:xlink="http://www.w3.org/1999/xlink"><style>:root&gt;svg{display:none}:root&gt;svg:target{display:block}</style><svg fill="none" viewBox="0 0 24 25" id="arrow-right" xmlns="http://www.w3.org/2000/svg"><path d="M12 5.5l7 7-7 7m-7-7h14H5z" stroke="#3B71FE" stroke-width="2" stroke-linecap="round" stroke-linejoin="round"/></svg><svg fill="none" viewBox="0 0 110 463" id="hero-arrow-down" xmlns="http://www.w3.org/2000/svg"><path d="M100.057 463a1 1 0 001.002-.998l.015-9a1.001 1.001 0 00-2-.004l-.014 8-8-.013a1 1 0 10-.003 2l9 .015zm.71-1.706c-.974-.977-1.94-1.955-2.897-2.933l-1.43 1.399a454.12 454.12 0 002.91 2.946l1.417-1.412zm-8.54-8.806a428.132 428.132 0 01-5.447-5.881l-1.48 1.345a431.54 431.54 0 005.471 5.909l1.455-1.373zm-10.834-11.926a399.955 399.955 0 01-5.286-6.173l-1.532 1.285a408.22 408.22 0 005.312 6.204l1.506-1.316zM71.029 428.21a381.696 381.696 0 01-5.032-6.394l-1.585 1.22a381.089 381.089 0 005.06 6.427l1.558-1.253zm-9.898-12.86a356.206 356.206 0 01-4.66-6.487l-1.638 1.149a359.7 359.7 0 004.687 6.523l1.61-1.185zm-9.275-13.231a338.54 338.54 0 01-4.385-6.744l-1.69 1.07a341.166 341.166 0 004.41 6.784l1.665-1.11zm-8.62-13.617c-1.4-2.336-2.76-4.672-4.081-7.007l-1.741.985c1.329 2.349 2.697 4.7 4.106 7.05l1.715-1.028zm-7.927-14.011a307.49 307.49 0 01-3.738-7.25l-1.79.892a308.458 308.458 0 003.763 7.298l1.765-.94zm-7.23-14.492a294.559 294.559 0 01-3.315-7.38l-1.836.794a295.116 295.116 0 003.338 7.43l1.813-.844zm-6.42-14.839a283.941 283.941 0 01-2.882-7.511l-1.877.69a287.55 287.55 0 002.902 7.564l1.857-.743zM16.09 330a276.83 276.83 0 01-2.437-7.639l-1.914.58a279.926 279.926 0 002.455 7.695L16.09 330zm-4.678-15.448a271.798 271.798 0 01-1.987-7.782l-1.945.466a273.951 273.951 0 002.001 7.839l1.93-.523zm-3.758-15.694a271.932 271.932 0 01-1.522-7.904l-1.969.349c.47 2.649.98 5.303 1.533 7.963l1.958-.408zm-2.812-15.89c-.39-2.671-.74-5.335-1.047-7.992l-1.987.23c.31 2.677.661 5.361 1.055 8.051l1.979-.289zm-1.855-16.032c-.23-2.69-.419-5.373-.567-8.047L.423 259c.15 2.694.34 5.396.571 8.106l1.993-.17zm-.895-16.116c-.07-2.699-.1-5.39-.09-8.071l-2-.007c-.01 2.701.02 5.41.09 8.129l2-.051zm.056-16.144c.088-2.698.214-5.386.379-8.064L.53 226.49a282.9 282.9 0 00-.381 8.121l1.999.065zm.988-16.117c.242-2.688.52-5.365.835-8.029l-1.986-.235a290.97 290.97 0 00-.841 8.085l1.992.179zm1.894-16.038c.39-2.67.815-5.327 1.275-7.971l-1.97-.342a300.39 300.39 0 00-1.284 8.024l1.979.289zm2.765-15.913a308.893 308.893 0 011.697-7.891l-1.95-.446a311.383 311.383 0 00-1.708 7.942l1.961.395zm3.6-15.749a321.116 321.116 0 012.097-7.791l-1.925-.544a323.33 323.33 0 00-2.11 7.839l1.938.496zm4.394-15.549a333.387 333.387 0 012.476-7.674l-1.895-.638a336.002 336.002 0 00-2.492 7.721l1.91.591zm5.147-15.319a349.305 349.305 0 012.835-7.542l-1.864-.725a350.257 350.257 0 00-2.851 7.585l1.88.682zm5.86-15.061a360.494 360.494 0 013.18-7.412l-1.83-.809a362.28 362.28 0 00-3.196 7.453l1.847.768zm6.537-14.782a369.784 369.784 0 013.506-7.273l-1.792-.888a373.188 373.188 0 00-3.525 7.312l1.81.849zm7.175-14.48a382.53 382.53 0 013.821-7.129l-1.752-.963a384.981 384.981 0 00-3.842 7.166l1.773.926zm7.781-14.157a389.349 389.349 0 014.126-6.978l-1.71-1.036a391.692 391.692 0 00-4.148 7.014l1.732 1zm8.366-13.822a392.114 392.114 0 014.415-6.81l-1.666-1.105a394.37 394.37 0 00-4.439 6.844l1.69 1.071zm8.949-13.495a389.825 389.825 0 014.666-6.585l-1.62-1.173a391.627 391.627 0 00-4.69 6.618l1.644 1.14zm9.494-13.105a379.388 379.388 0 014.928-6.37l-1.57-1.24a381.92 381.92 0 00-4.953 6.403l1.595 1.207zm10.019-12.665a359.698 359.698 0 015.234-6.188l-1.512-1.308a361.952 361.952 0 00-5.264 6.221l1.541 1.275zM95.69 16.211a329.201 329.201 0 015.498-5.914l-1.447-1.38a329.41 329.41 0 00-5.532 5.95l1.481 1.344zm11.175-11.715c.948-.943 1.892-1.869 2.83-2.777L108.305.28a284.8 284.8 0 00-2.85 2.797l1.41 1.418z" fill="#3B71FE"/></svg><svg fill="none" viewBox="0 0 116 35" id="logo-light" xmlns="http://www.w3.org/2000/svg"><path d="M8.016 3.664c2.347 0 4.405.459 6.176 1.376 1.792.917 3.168 2.23 4.128 3.936.981 1.685 1.472 3.648 1.472 5.888 0 2.24-.49 4.203-1.472 5.888-.96 1.664-2.336 2.955-4.128 3.872-1.77.917-3.83 1.376-6.176 1.376H.208V3.664h7.808zm-.16 18.528c2.347 0 4.16-.64 5.44-1.92 1.28-1.28 1.92-3.083 1.92-5.408s-.64-4.139-1.92-5.44c-1.28-1.323-3.093-1.984-5.44-1.984H4.688v14.752h3.168zM25.418 6.16c-.79 0-1.451-.245-1.985-.736-.511-.512-.767-1.141-.767-1.888 0-.747.256-1.365.767-1.856.534-.512 1.195-.768 1.985-.768.789 0 1.44.256 1.951.768.534.49.8 1.11.8 1.856 0 .747-.266 1.376-.8 1.888-.511.49-1.162.736-1.951.736zm2.207 2.112V26h-4.48V8.272h4.48zm11.37-.288c1.323 0 2.486.267 3.489.8 1.002.512 1.792 1.184 2.368 2.016V8.272h4.512v17.856c0 1.643-.33 3.104-.992 4.384-.662 1.301-1.654 2.325-2.976 3.072-1.323.768-2.923 1.152-4.8 1.152-2.518 0-4.587-.587-6.208-1.76-1.6-1.173-2.507-2.773-2.72-4.8h4.448c.234.81.736 1.45 1.504 1.92.79.49 1.738.736 2.848.736 1.301 0 2.357-.395 3.168-1.184.81-.768 1.216-1.941 1.216-3.52v-2.752c-.576.832-1.376 1.525-2.4 2.08-1.003.555-2.155.832-3.456.832-1.494 0-2.859-.384-4.096-1.152-1.238-.768-2.219-1.845-2.944-3.232-.704-1.408-1.056-3.019-1.056-4.832 0-1.792.352-3.381 1.056-4.768.725-1.387 1.696-2.453 2.912-3.2 1.237-.747 2.613-1.12 4.128-1.12zm5.857 9.152c0-1.088-.214-2.016-.64-2.784-.427-.79-1.003-1.387-1.728-1.792a4.53 4.53 0 00-2.336-.64c-.832 0-1.6.203-2.304.608-.704.405-1.28 1.003-1.728 1.792-.427.768-.64 1.685-.64 2.752 0 1.067.213 2.005.64 2.816.448.79 1.024 1.397 1.728 1.824.725.427 1.493.64 2.304.64.832 0 1.61-.203 2.336-.608a4.656 4.656 0 001.728-1.792c.426-.79.64-1.728.64-2.816zM56.012 6.16c-.79 0-1.451-.245-1.985-.736-.512-.512-.768-1.141-.768-1.888 0-.747.256-1.365.768-1.856.534-.512 1.195-.768 1.984-.768.79 0 1.44.256 1.952.768.534.49.8 1.11.8 1.856 0 .747-.266 1.376-.8 1.888-.512.49-1.162.736-1.952.736zm2.207 2.112V26h-4.48V8.272h4.48zm9.643 3.68v8.576c0 .597.138 1.035.416 1.312.298.256.789.384 1.471.384h2.08V26h-2.816c-3.776 0-5.664-1.835-5.664-5.504v-8.544h-2.111v-3.68h2.111V3.888h4.513v4.384h3.968v3.68h-3.968zm11.606-8.288v13.824c0 1.515.394 2.677 1.184 3.488.79.79 1.898 1.184 3.328 1.184 1.45 0 2.57-.395 3.36-1.184.79-.81 1.184-1.973 1.184-3.488V3.664h4.512v13.792c0 1.899-.416 3.51-1.248 4.832a7.723 7.723 0 01-3.296 2.944c-1.366.661-2.89.992-4.576.992-1.664 0-3.179-.33-4.544-.992a7.603 7.603 0 01-3.2-2.944c-.79-1.323-1.184-2.933-1.184-4.832V3.664h4.48zM110.74 26l-4.832-7.52-4.384 7.52h-5.056l7.04-11.264-7.136-11.072h5.152l4.832 7.488 4.352-7.488h5.056l-7.008 11.232L115.892 26h-5.152z" fill="#3B71FE"/></svg><svg fill="none" viewBox="0 0 20 20" id="talk" xmlns="http://www.w3.org/2000/svg"><path d="M19 13a2 2 0 01-2 2H5l-4 4V3a2 2 0 012-2h14a2 2 0 012 2v10z" stroke="#fff" stroke-width="2" stroke-linecap="round" stroke-linejoin="round"/></svg></svg>